<svg id="visual" viewBox="0 0 1080 540" width="1080" height="540" xmlns="http://www.w3.org/2000/svg" xmlns:xlink="http://www.w3.org/1999/xlink" version="1.1"><path d="M0 413L45 412C90 411 180 409 270 401.8C360 394.7 450 382.3 540 371.5C630 360.7 720 351.3 810 355.8C900 360.3 990 378.7 1035 387.8L1080 397L1080 541L1035 541C990 541 900 541 810 541C720 541 630 541 540 541C450 541 360 541 270 541C180 541 90 541 45 541L0 541Z" fill="#56929d" stroke-linecap="round" stroke-linejoin="miter"></path></svg>